<svg width="119" height="51" viewBox="0 0 119 51" fill="none" xmlns="http://www.w3.org/2000/svg">
<g filter="url(#filter0_d_376_8086)">
<path d="M34.6634 25.41V25.9373H34.593C29.3309 25.9373 25.062 30.1882 25.0349 35.4413H24.5618C24.5329 30.1864 20.2621 25.9373 15 25.9373V25.41C20.2802 25.41 24.5618 21.1284 24.5618 15.8483V15.7778H25.0349V15.8483C25.0349 21.1284 29.3128 25.41 34.593 25.41H34.6634Z" fill="url(#paint0_linear_376_8086)"/>
</g>
<g filter="url(#filter1_d_376_8086)">
<path d="M53.5271 31.6094L52.6631 29.1454H48.1991L47.3191 31.6094H44.8711L49.1911 20.1214H51.8471L56.1351 31.6094H53.5271ZM50.4551 22.7774L48.8871 27.2094H51.9911L50.4551 22.7774ZM59.7266 26.9534V31.6094H57.5026V23.0654H59.5506V24.2814C60.1746 23.4334 61.0546 22.9054 62.1746 22.9054C63.8866 22.9054 65.0706 24.0254 65.0706 26.0894V31.6094H62.8626V26.8414C62.8626 25.5774 62.3666 24.8734 61.3586 24.8734C60.4786 24.8734 59.7266 25.5774 59.7266 26.9534ZM74.363 28.8734C74.363 30.6654 73.003 31.7694 70.571 31.7694C68.139 31.7694 66.779 30.6014 66.603 28.6974H68.731C68.747 29.5774 69.499 30.1374 70.603 30.1374C71.467 30.1374 72.123 29.8654 72.123 29.2574C72.123 28.7134 71.771 28.4894 70.955 28.3294L69.419 28.0414C67.883 27.7694 66.955 26.9214 66.955 25.5934C66.955 24.0094 68.315 22.9054 70.443 22.9054C72.587 22.9054 74.059 24.0414 74.219 25.8814H72.091C72.011 25.0494 71.387 24.5374 70.443 24.5374C69.627 24.5374 69.083 24.8414 69.083 25.3854C69.083 25.8974 69.435 26.1054 70.203 26.2494L71.851 26.5534C73.515 26.8734 74.363 27.6414 74.363 28.8734ZM82.8306 31.6094L81.2146 26.0574L79.6146 31.6094H77.3906L74.9586 23.0654H77.1186L78.5746 28.4734L80.1426 23.0654H82.3346L83.8546 28.4734L85.2946 23.0654H87.4866L85.0386 31.6094H82.8306ZM92.2571 31.7534C89.6971 31.7534 87.9851 29.9774 87.9851 27.3054C87.9851 24.7614 89.7611 22.9054 92.2251 22.9054C94.9291 22.9054 96.7211 25.0974 96.3211 27.8814H90.2571C90.4011 29.2734 91.0731 30.0414 92.2091 30.0414C93.1851 30.0414 93.8411 29.5614 94.0971 28.7134H96.3051C95.8251 30.6494 94.3371 31.7534 92.2571 31.7534ZM92.1771 24.5374C91.1371 24.5374 90.4811 25.2094 90.2891 26.4734H93.9691C93.9051 25.2894 93.2331 24.5374 92.1771 24.5374ZM100.195 27.4654V31.6094H97.9707V23.0654H100.019V24.7134C100.643 23.6254 101.971 22.9694 103.347 22.9694V25.2734C101.459 25.1294 100.195 25.5774 100.195 27.4654Z" fill="#E8E8E6"/>
</g>
<defs>
<filter id="filter0_d_376_8086" x="0" y="0.777832" width="49.6631" height="49.6636" filterUnits="userSpaceOnUse" color-interpolation-filters="sRGB">
<feFlood flood-opacity="0" result="BackgroundImageFix"/>
<feColorMatrix in="SourceAlpha" type="matrix" values="0 0 0 0 0 0 0 0 0 0 0 0 0 0 0 0 0 0 127 0" result="hardAlpha"/>
<feOffset/>
<feGaussianBlur stdDeviation="7.5"/>
<feComposite in2="hardAlpha" operator="out"/>
<feColorMatrix type="matrix" values="0 0 0 0 1 0 0 0 0 1 0 0 0 0 1 0 0 0 0.4 0"/>
<feBlend mode="normal" in2="BackgroundImageFix" result="effect1_dropShadow_376_8086"/>
<feBlend mode="normal" in="SourceGraphic" in2="effect1_dropShadow_376_8086" result="shape"/>
</filter>
<filter id="filter1_d_376_8086" x="29.8711" y="5.12158" width="88.4756" height="41.6479" filterUnits="userSpaceOnUse" color-interpolation-filters="sRGB">
<feFlood flood-opacity="0" result="BackgroundImageFix"/>
<feColorMatrix in="SourceAlpha" type="matrix" values="0 0 0 0 0 0 0 0 0 0 0 0 0 0 0 0 0 0 127 0" result="hardAlpha"/>
<feOffset/>
<feGaussianBlur stdDeviation="7.5"/>
<feComposite in2="hardAlpha" operator="out"/>
<feColorMatrix type="matrix" values="0 0 0 0 1 0 0 0 0 1 0 0 0 0 1 0 0 0 0.4 0"/>
<feBlend mode="normal" in2="BackgroundImageFix" result="effect1_dropShadow_376_8086"/>
<feBlend mode="normal" in="SourceGraphic" in2="effect1_dropShadow_376_8086" result="shape"/>
</filter>
<linearGradient id="paint0_linear_376_8086" x1="11.899" y1="9.22567" x2="31.3774" y2="37.9413" gradientUnits="userSpaceOnUse">
<stop stop-color="white"/>
<stop offset="1" stop-color="#F8F8F8"/>
</linearGradient>
</defs>
</svg>
