<svg width="16" height="17" viewBox="0 0 16 17" fill="none" xmlns="http://www.w3.org/2000/svg">
<path fill-rule="evenodd" clip-rule="evenodd" d="M10.7288 2.10902C10.1954 2.10902 9.68386 2.32092 9.30669 2.6981L3.06424 8.94053C2.43215 9.57262 2.07704 10.4299 2.07704 11.3239C2.07704 12.2178 2.43215 13.0751 3.06424 13.7072C3.69634 14.3393 4.55364 14.6944 5.44755 14.6944C6.34147 14.6944 7.19877 14.3393 7.83086 13.7072L14.0733 7.46471L14.5735 6.96454L15.5738 7.96488L15.0737 8.46504L8.8312 14.7075C7.9338 15.6049 6.71667 16.1091 5.44755 16.1091C4.17844 16.1091 2.96131 15.6049 2.06391 14.7075C1.16651 13.8101 0.662354 12.593 0.662354 11.3239C0.662354 10.0547 1.16651 8.83759 2.06391 7.94019L8.30635 1.69776C8.94883 1.05528 9.82023 0.694336 10.7288 0.694336C11.6375 0.694336 12.5089 1.05528 13.1513 1.69776C13.7938 2.34024 14.1548 3.21164 14.1548 4.12024C14.1548 5.02885 13.7938 5.90025 13.1513 6.54273L6.90209 12.7852C6.902 12.7853 6.90218 12.7851 6.90209 12.7852C6.51455 13.1726 5.98874 13.3905 5.44076 13.3905C4.89266 13.3905 4.367 13.1728 3.97943 12.7852C3.59186 12.3976 3.37413 11.872 3.37413 11.3239C3.37413 10.7758 3.59186 10.2501 3.97943 9.86251L9.74669 4.10206L10.2472 3.60218L11.2469 4.60311L10.7464 5.10298L4.97977 10.8629C4.97974 10.8629 4.9798 10.8628 4.97977 10.8629C4.85756 10.9851 4.78882 11.151 4.78882 11.3239C4.78882 11.4968 4.85751 11.6626 4.97977 11.7849C5.10203 11.9071 5.26786 11.9758 5.44076 11.9758C5.61367 11.9758 5.77949 11.9071 5.90175 11.7849L12.151 5.54239C12.1509 5.54248 12.1511 5.5423 12.151 5.54239C12.528 5.16524 12.7401 4.65352 12.7401 4.12024C12.7401 3.58683 12.5282 3.07527 12.151 2.6981C11.7738 2.32092 11.2623 2.10902 10.7288 2.10902Z" fill="#F2F2F2"/>
</svg>
