<svg width="17" height="16" viewBox="0 0 17 16" fill="none" xmlns="http://www.w3.org/2000/svg">
<path fill-rule="evenodd" clip-rule="evenodd" d="M12.9384 6.88386L8.43843 2.38386L3.93843 6.88386V13.8232H6.43843V11.3232C6.43843 10.2186 7.33386 9.3232 8.43843 9.3232C9.543 9.3232 10.4384 10.2186 10.4384 11.3232V13.8232H12.9384V6.88386ZM14.2184 6.04257L9.14553 0.969651C8.75501 0.579128 8.12184 0.579125 7.73132 0.969651L2.65829 6.04268C2.65816 6.04281 2.65841 6.04256 2.65829 6.04268L0.908099 7.79287L0.377769 8.3232L1.43843 9.38386L1.96876 8.85353L2.43843 8.38386V14.5732V15.3232H3.18843H6.43843H7.93843H8.93843H10.4384H13.6884H14.4384V14.5732V8.38386L14.9081 8.85353L15.4384 9.38386L16.4991 8.3232L15.9687 7.79287L14.2184 6.04257C14.2186 6.04277 14.2182 6.04237 14.2184 6.04257ZM8.93843 11.3232V13.8232H7.93843V11.3232C7.93843 11.047 8.16228 10.8232 8.43843 10.8232C8.71457 10.8232 8.93843 11.047 8.93843 11.3232Z" fill="#F2F2F2"/>
</svg>
