<svg width="17" height="16" viewBox="0 0 17 16" fill="none" xmlns="http://www.w3.org/2000/svg">
<path fill-rule="evenodd" clip-rule="evenodd" d="M0.343506 0.984863H1.09351H5.34351C6.57021 0.984863 7.65934 1.57387 8.34351 2.48449C9.02768 1.57387 10.1168 0.984863 11.3435 0.984863H15.5935H16.3435V1.73486V12.9849V13.7349H15.5935H11.0861C10.4894 13.7349 9.91712 13.972 9.49516 14.3939L8.87384 15.0152H7.81318L7.19186 14.3939C6.7699 13.972 6.19761 13.7349 5.60087 13.7349H1.09351H0.343506V12.9849V1.73486V0.984863ZM7.59351 4.73486C7.59351 3.49222 6.58615 2.48486 5.34351 2.48486H1.84351V12.2349H5.60087C6.31137 12.2349 7.00109 12.4365 7.59351 12.8081V4.73486ZM9.09351 12.8081V4.73486C9.09351 3.49222 10.1009 2.48486 11.3435 2.48486H14.8435V12.2349H11.0861C10.3756 12.2349 9.68593 12.4365 9.09351 12.8081Z" fill="#F2F2F2"/>
</svg>
